<?xml version="1.0" standalone="no"?><!DOCTYPE svg PUBLIC "-//W3C//DTD SVG 1.1//EN" "http://www.w3.org/Graphics/SVG/1.1/DTD/svg11.dtd"><svg t="1709636011068" class="icon" viewBox="0 0 1024 1024" version="1.1" xmlns="http://www.w3.org/2000/svg" p-id="5158" xmlns:xlink="http://www.w3.org/1999/xlink" width="128" height="128"><path d="M918.94 877.25L760.7 719.01c56.58-66.51 90.93-152.49 90.93-246.45 0-210.13-170.94-381.07-381.07-381.07S89.49 262.44 89.49 472.57s170.94 381.07 381.07 381.07c93.96 0 179.94-34.35 246.45-90.93l158.24 158.24c6.03 6.03 13.94 9.05 21.85 9.05s15.81-3.02 21.85-9.05c12.06-12.07 12.06-31.63-0.01-43.7zM151.29 472.57c0-176.05 143.22-319.28 319.28-319.28s319.28 143.22 319.28 319.28-143.23 319.27-319.29 319.27-319.27-143.22-319.27-319.27z" fill="#e6e6e6" p-id="5159"></path></svg>