<?xml version="1.0" standalone="no"?><!DOCTYPE svg PUBLIC "-//W3C//DTD SVG 1.1//EN" "http://www.w3.org/Graphics/SVG/1.1/DTD/svg11.dtd"><svg t="1708911819592" class="icon" viewBox="0 0 1024 1024" version="1.1" xmlns="http://www.w3.org/2000/svg" p-id="2408" xmlns:xlink="http://www.w3.org/1999/xlink" width="128" height="128"><path d="M511.95 0.1C229.178 0.1 0 229.278 0 512.05S229.178 1024 511.95 1024s511.95-229.178 511.95-511.95C1024 229.278 794.822 0.1 511.95 0.1z m347.866 813.52C814.521 714.83 729.63 638.439 624.54 606.04c55.395-36.496 92.191-99.39 92.191-170.783 0-113.088-91.791-204.88-204.88-204.88s-204.88 91.792-204.88 204.88c0 71.394 36.696 134.287 92.191 170.984-105.09 32.397-189.981 108.79-235.177 207.58C93.691 732.928 50.995 627.739 50.995 512.15c0-254.575 206.28-460.855 460.855-460.855 254.575 0 460.855 206.28 460.855 460.855 0.1 115.389-42.796 220.578-112.889 301.47z" p-id="2409" fill="#ffffff"></path></svg>