<?xml version="1.0" standalone="no"?><!DOCTYPE svg PUBLIC "-//W3C//DTD SVG 1.1//EN" "http://www.w3.org/Graphics/SVG/1.1/DTD/svg11.dtd"><svg t="1706629959489" class="icon" viewBox="0 0 1024 1024" version="1.1" xmlns="http://www.w3.org/2000/svg" p-id="28593" width="30" height="30" xmlns:xlink="http://www.w3.org/1999/xlink"><path d="M852.31 907.93a37.71 37.71 0 0 1-28-12.43L679.9 736.27a37.84 37.84 0 0 1 56.1-50.83l144.33 159.23a37.85 37.85 0 0 1-28 63.26z" fill="#ffffff" p-id="28594"></path><path d="M500.07 482.28m-328.37 0a328.37 328.37 0 1 0 656.74 0 328.37 328.37 0 1 0-656.74 0Z" fill="#ffffff" p-id="28595"></path><path d="M245.87 561a27 27 0 0 1-26.72-23.19A269.85 269.85 0 0 1 305 299.29a27 27 0 1 1 36.31 40 215.81 215.81 0 0 0-68.68 190.82 27 27 0 0 1-22.92 30.59 26.72 26.72 0 0 1-3.84 0.3z" fill="#ffffff" p-id="28596"></path></svg>