<?xml version="1.0" standalone="no"?><!DOCTYPE svg PUBLIC "-//W3C//DTD SVG 1.1//EN" "http://www.w3.org/Graphics/SVG/1.1/DTD/svg11.dtd"><svg t="1706691250597" class="icon" viewBox="0 0 1024 1024" version="1.1" xmlns="http://www.w3.org/2000/svg" p-id="5779" width="30" height="30" xmlns:xlink="http://www.w3.org/1999/xlink"><path d="M512 540.416a32 32 0 0 1-32-32v-256a32 32 0 0 1 64 0v256a32 32 0 0 1-32 32zM733.696 672a31.616 31.616 0 0 1-16-4.288L496 539.712a32 32 0 0 1 32-55.424l221.696 128a32 32 0 0 1-16 59.712zM512 1024C229.696 1024 0 794.304 0 512S229.696 0 512 0s512 229.696 512 512-229.696 512-512 512z m0-960C264.96 64 64 264.96 64 512c0 246.976 200.96 448 448 448 246.976 0 448-201.024 448-448 0-247.04-201.024-448-448-448z" fill="#000000" p-id="5780"></path></svg>