<?xml version="1.0" standalone="no"?><!DOCTYPE svg PUBLIC "-//W3C//DTD SVG 1.1//EN" "http://www.w3.org/Graphics/SVG/1.1/DTD/svg11.dtd"><svg t="1706754650185" class="icon" viewBox="0 0 1062 1024" version="1.1" xmlns="http://www.w3.org/2000/svg" p-id="3938" width="311.1328125" height="300" xmlns:xlink="http://www.w3.org/1999/xlink"><path d="M1049.6 499.2L910.628571 89.6C896 38.4 841.142857 0 784.457143 0h-62.171429c-10.971429 0-18.285714 9.142857-18.285714 18.285714s7.314286 18.285714 18.285714 18.285715h62.171429c40.228571 0 80.457143 27.428571 91.428571 64l131.657143 387.657142c-14.628571-5.485714-31.085714-9.142857-51.2-9.142857H696.685714c-20.114286 0-38.4 10.971429-47.542857 29.257143-23.771429 45.714286-67.657143 73.142857-117.028571 73.142857s-95.085714-27.428571-117.028572-73.142857c-9.142857-18.285714-27.428571-29.257143-47.542857-29.257143H106.057143c-21.942857 0-38.4 3.657143-53.028572 10.971429l131.657143-387.657143c10.971429-36.571429 51.2-65.828571 91.428572-65.828571h84.114285c10.971429 0 18.285714-9.142857 18.285715-18.285715s-7.314286-18.285714-18.285715-18.285714h-84.114285C219.428571 0 164.571429 38.4 149.942857 91.428571L10.971429 499.2c-7.314286 16.457143-10.971429 32.914286-10.971429 49.371429v332.8C0 960 64 1024 142.628571 1024h777.142858c78.628571 0 142.628571-64 142.628571-142.628571V548.571429c-1.828571-18.285714-5.485714-32.914286-12.8-49.371429zM1024 881.371429c0 58.514286-47.542857 106.057143-106.057143 106.057142H142.628571C84.114286 987.428571 36.571429 939.885714 36.571429 881.371429V576c0-23.771429 9.142857-60.342857 69.485714-60.342857H365.714286c5.485714 0 12.8 3.657143 14.628571 9.142857 29.257143 58.514286 87.771429 93.257143 149.942857 93.257143 64 0 120.685714-36.571429 149.942857-93.257143 3.657143-5.485714 9.142857-9.142857 14.628572-9.142857h259.657143c58.514286 0 67.657143 38.4 67.657143 60.342857v305.371429z" fill="#F2F2F2" p-id="3939"></path><path d="M561.371429 60.342857c0-21.942857-7.314286-36.571429-34.742858-36.571428s-32.914286 16.457143-32.914285 36.571428l12.8 250.514286c0 14.628571 3.657143 25.6 21.942857 25.6s21.942857-10.971429 21.942857-25.6l10.971429-250.514286z m-71.314286 363.885714c0 20.114286 16.457143 36.571429 36.571428 36.571429s36.571429-16.457143 36.571429-36.571429-16.457143-36.571429-36.571429-36.571428c-20.114286-1.828571-36.571429 16.457143-36.571428 36.571428z" fill="#F2F2F2" p-id="3940"></path></svg>