<?xml version="1.0" standalone="no"?><!DOCTYPE svg PUBLIC "-//W3C//DTD SVG 1.1//EN" "http://www.w3.org/Graphics/SVG/1.1/DTD/svg11.dtd"><svg t="1706674254997" class="icon" viewBox="0 0 1024 1024" version="1.1" xmlns="http://www.w3.org/2000/svg" p-id="2463" width="30" height="30" xmlns:xlink="http://www.w3.org/1999/xlink"><path d="M308.7104 247.5264a38.10304 38.10304 0 0 0 38.11328-38.11328V107.78624a38.1184 38.1184 0 0 0-76.22656 0V209.408a38.10816 38.10816 0 0 0 38.11328 38.1184z m580.8128-61.696h-87.13216l1.81248 23.5776c0 49.14688-39.79776 88.94976-88.91904 88.94976-49.1264 0-88.94976-39.79776-88.94976-88.94976l1.8176-23.5776H395.84256l1.8176 23.5776c0 49.14688-39.82336 88.94976-88.94976 88.94976S219.76576 258.56 219.76576 209.408l1.83808-23.5776H134.4768c-21.04832 0-29.05088 8.00256-29.05088 29.0304v629.82656a38.12352 38.12352 0 0 0 38.11328 38.10816h736.9216a38.12864 38.12864 0 0 0 38.11328-38.10816V214.8608c0-21.02272-8.00256-29.0304-29.05088-29.0304z m-58.07616 609.83808H192.55296V389.12h638.88896v406.54848zM715.2896 247.5264a38.09792 38.09792 0 0 0 38.10816-38.11328V107.78624a38.1184 38.1184 0 0 0-76.22144 0V209.408a38.10304 38.10304 0 0 0 38.11328 38.1184z m-377.5488 315.83232c32.0768 0 58.10176-26.02496 58.10176-58.08128 0-32.1024-26.02496-58.10176-58.10176-58.10176-32.05632 0-58.05568 25.99936-58.05568 58.10176 0 32.05632 25.99936 58.08128 58.05568 58.08128z m174.2592 0c32.08192 0 58.08128-26.02496 58.08128-58.08128 0-32.1024-25.99936-58.10176-58.08128-58.10176-32.0768 0-58.08128 25.99936-58.08128 58.10176 0 32.05632 26.00448 58.08128 58.08128 58.08128z m174.2336 0c32.08192 0 58.10688-26.02496 58.10688-58.08128 0-32.1024-26.02496-58.10176-58.10688-58.10176-32.0768 0-58.07616 25.99936-58.07616 58.10176 0.00512 32.05632 26.00448 58.08128 58.07616 58.08128z m-348.4928 145.21344c32.0768 0 58.10176-26.05056 58.10176-58.08128 0-32.11776-26.02496-58.08128-58.10176-58.08128-32.05632 0-58.05568 25.9584-58.05568 58.08128 0 32.03072 25.99936 58.08128 58.05568 58.08128z m174.2592 0c32.08192 0 58.08128-26.05056 58.08128-58.08128 0-32.11776-25.99936-58.08128-58.08128-58.08128-32.0768 0-58.08128 25.9584-58.08128 58.08128 0 32.03072 26.00448 58.08128 58.08128 58.08128z m174.2336 0c32.08192 0 58.10688-26.05056 58.10688-58.08128 0-32.11776-26.02496-58.08128-58.10688-58.08128-32.0768 0-58.07616 25.9584-58.07616 58.08128 0.00512 32.03072 26.00448 58.08128 58.07616 58.08128z m0 0" fill="#0071BC" p-id="2464"></path></svg>